<?xml version="1.0" encoding="utf-8"?>
<!-- Generator: Adobe Illustrator 22.1.0, SVG Export Plug-In . SVG Version: 6.00 Build 0)  -->
<svg version="1.1" id="emoji" xmlns="http://www.w3.org/2000/svg" xmlns:xlink="http://www.w3.org/1999/xlink" x="0px" y="0px"
	 viewBox="0 0 72 72" style="enable-background:new 0 0 72 72;" xml:space="preserve">
<style type="text/css">
	.st0{fill:none;stroke:#000000;stroke-width:2;stroke-miterlimit:10;}
	.st1{fill:#FFD55E;}
</style>
<g id="color">
	<path d="M36,13.1c-12.7,0-23,10.3-23,23s10.3,23,23,23s23-10.3,23-23S48.7,13.1,36,13.1z"/>
</g>
<g id="hair">
</g>
<g id="skin">
</g>
<g id="skin-shadow">
</g>
<g id="line">
	<circle class="st0" cx="36" cy="36" r="23"/>
</g>
<path class="st1" d="M33.9,49.5l19-19c0.8-0.7,0.8-2,0-2.7c0,0,0,0,0,0l-3.2-3.1c-0.7-0.8-2-0.8-2.7,0c0,0,0,0,0,0L32.5,39.1
	L26,32.6c-0.7-0.8-2-0.8-2.7,0c0,0,0,0,0,0l-3.1,3.1c-0.8,0.7-0.8,2,0,2.7c0,0,0,0,0,0l11.1,11.1C31.9,50.3,33.1,50.3,33.9,49.5
	C33.9,49.6,33.9,49.6,33.9,49.5L33.9,49.5z"/>
</svg>
