<?xml version="1.0" encoding="utf-8"?>
<!-- Generator: Adobe Illustrator 22.1.0, SVG Export Plug-In . SVG Version: 6.00 Build 0)  -->
<svg version="1.1" id="emoji" xmlns="http://www.w3.org/2000/svg" xmlns:xlink="http://www.w3.org/1999/xlink" x="0px" y="0px"
	 viewBox="0 0 72 72" style="enable-background:new 0 0 72 72;" xml:space="preserve">
<style type="text/css">
	.st0{fill:#F9DF6E;}
	.st1{fill:#FFFFFF;}
	.st2{fill:#EA5A47;}
	.st3{fill:none;stroke:#000000;stroke-width:2;stroke-linecap:round;stroke-linejoin:round;}
	.st4{fill:none;stroke:#000000;stroke-width:2;stroke-linejoin:round;}
</style>
<g id="color">
	<circle class="st0" cx="36.3" cy="36.9" r="23"/>
	<path class="st1" d="M21.9,42.7c0,0,14.8,3.6,28.9,0.1l0.2-0.1c0,6.5-4.8,11.7-14.6,11.7c-9.7,0-14.6-5.2-14.6-11.7L21.9,42.7z"/>
	<path class="st2" d="M22.6,47.1c2,0.5,15,3.2,27.5,0.1l0,0c-1.8,4.3-6.4,7.2-13.7,7.2C29,54.5,24.3,51.4,22.6,47.1L22.6,47.1z"/>
</g>
<g id="line">
	<circle class="st3" cx="36.3" cy="36.9" r="23"/>
	<circle cx="27.5" cy="33.5" r="2.6"/>
	<circle cx="44.8" cy="33.5" r="2.6"/>
	<path class="st3" d="M21.9,42.7c0,0,14.8,3.6,28.9,0.1l0.2-0.1c0,6.5-4.8,11.7-14.6,11.7c-9.7,0-14.6-5.2-14.6-11.7L21.9,42.7z"/>
	<path class="st4" d="M22.3,47c0,0,14.5,3.6,28.3,0.1"/>
</g>
</svg>
