<?xml version="1.0" encoding="utf-8"?>
<!-- Generator: Adobe Illustrator 22.1.0, SVG Export Plug-In . SVG Version: 6.00 Build 0)  -->
<svg version="1.1" id="emoji" xmlns="http://www.w3.org/2000/svg" xmlns:xlink="http://www.w3.org/1999/xlink" x="0px" y="0px"
	 viewBox="0 0 72 72" style="enable-background:new 0 0 72 72;" xml:space="preserve">
<style type="text/css">
	.st0{clip-path:url(#SVGID_5_);}
	.st1{clip-path:url(#SVGID_6_);fill:#FCEA2B;}
	.st2{fill:#F9DF6E;}
	.st3{fill:none;stroke:#000000;stroke-width:2;stroke-linecap:round;stroke-linejoin:round;stroke-miterlimit:10;}
</style>
<g id="color">
	<g>
		<g>
			<defs>
				<polygon id="SVGID_1_" points="0.2,8 1.2,8 0.2,9 				"/>
			</defs>
			<clipPath id="SVGID_2_">
				<use xlink:href="#SVGID_1_"  style="overflow:visible;"/>
			</clipPath>
		</g>
		<g>
			<defs>
				<polygon id="SVGID_3_" points="0.2,8 1.2,8 0.2,9 				"/>
			</defs>
			<defs>
				<polygon id="SVGID_4_" points="-1.8,6 -2.8,6 -1.8,5 				"/>
			</defs>
			<clipPath id="SVGID_5_">
				<use xlink:href="#SVGID_3_"  style="overflow:visible;"/>
			</clipPath>
			<clipPath id="SVGID_6_" class="st0">
				<use xlink:href="#SVGID_4_"  style="overflow:visible;"/>
			</clipPath>
			<rect x="8.9" y="8.4" class="st1" width="55.2" height="56"/>
		</g>
	</g>
	<circle class="st2" cx="36.2" cy="36.4" r="23"/>
</g>
<g id="hair">
</g>
<g id="skin">
</g>
<g id="skin-shadow">
</g>
<g id="line">
	<path class="st3" d="M29,44.8c2.4-0.7,11.9,0.5,14.1,2.1"/>
	<path class="st3" d="M22.5,22.8c1.3-0.9,2.8-1.3,4.4-1.1c1.6,0,3.1,0.7,4.2,1.7"/>
	<circle class="st3" cx="36.1" cy="36.4" r="23"/>
	<path class="st3" d="M51.3,26.8c-2.8-0.7-5.4-0.8-8.2-0.3"/>
	<ellipse cx="45.3" cy="34.1" rx="2.9" ry="2.9"/>
	<ellipse cx="28.3" cy="30.8" rx="2.9" ry="2.9"/>
</g>
</svg>
